<?xml version="1.0" encoding="utf-8"?>
<!-- Generator: Adobe Illustrator 24.3.0, SVG Export Plug-In . SVG Version: 6.00 Build 0)  -->
<svg version="1.1" id="Layer_1" xmlns="http://www.w3.org/2000/svg" xmlns:xlink="http://www.w3.org/1999/xlink" x="0px" y="0px"
	 viewBox="0 0 16 16" style="enable-background:new 0 0 16 16;" xml:space="preserve">
<style type="text/css">
	.st0{fill:#2563EB;}
	.st1{fill:#111827;}
</style>
<g>
	<polygon class="st0" points="6.88,7.89 5.83,10.22 3.63,10.22 5.12,6.92 7.32,6.92 	"/>
	<path class="st1" d="M9.21,10.04l-0.98,2.18h-3.3l0.91-2.01h2.52c0.23,0,0.45-0.04,0.66-0.1C9.08,10.1,9.14,10.07,9.21,10.04z"/>
	<path class="st1" d="M12.57,8c0,0.44-0.07,0.86-0.19,1.26c-0.12,0.4-0.3,0.77-0.53,1.11c-0.46,0.67-1.1,1.21-1.86,1.53
		c-0.35,0.15-0.72,0.25-1.11,0.3l1.43-3.17c0.03-0.05,0.1-0.23,0.11-0.24c0.09-0.24,0.14-0.5,0.14-0.78c0-0.23-0.04-0.45-0.1-0.66
		c-0.06-0.21-0.16-0.4-0.28-0.58c-0.24-0.35-0.58-0.64-0.98-0.8C8.95,5.85,8.66,5.78,8.35,5.78H3.43l1-2.01h3.93
		c0.44,0,0.86,0.07,1.26,0.19c0.4,0.12,0.77,0.3,1.11,0.53c0.67,0.46,1.21,1.1,1.53,1.86C12.46,6.86,12.57,7.42,12.57,8z"/>
</g>
</svg>
